PathFileType	4	(X/Y/Z)	Patient4_TMGait_0pt7_02_right_08.trc.trc
DataRate	CameraRate	NumFrames	NumMarkers	Units	OrigDataRate	OrigDataStartFrame	OrigNumFrames
85.889570552147	85.889570552147	4	33	mm	85.889570552147	71	       141
Frame#	Time	Sacral			L.Shoulder			Chest			R.Shoulder			Neck			R.ASIS			L.ASIS			R.Thigh.Superior			R.Thigh.Lateral			R.Thigh.Inferior			R.Patella			L.Thigh.Superior			L.Thigh.Lateral			L.Thigh.Inferior			L.Patella			L.Shank.Superior			L.Shank.Lateral			L.Shank.Inferior			R.Shank.Superior			R.Shank.Lateral			R.Shank.Inferior			R.Heel			R.Midfoot.Superior			R.Midfoot.Lateral			R.Toe			L.Heel			L.Midfoot.Lateral			L.Midfoot.Superior			L.Toe			L.Elbow			L.Wrist			R.Elbow			R.Wrist			
		X1	Y1	Z1	X2	Y2	Z2	X3	Y3	Z3	X4	Y4	Z4	X5	Y5	Z5	X6	Y6	Z6	X7	Y7	Z7	X8	Y8	Z8	X9	Y9	Z9	X10	Y10	Z10	X11	Y11	Z11	X12	Y12	Z12	X13	Y13	Z13	X14	Y14	Z14	X15	Y15	Z15	X16	Y16	Z16	X17	Y17	Z17	X18	Y18	Z18	X19	Y19	Z19	X20	Y20	Z20	X21	Y21	Z21	X22	Y22	Z22	X23	Y23	Z23	X24	Y24	Z24	X25	Y25	Z25	X26	Y26	Z26	X27	Y27	Z27	X28	Y28	Z28	X29	Y29	Z29	X30	Y30	Z30	X31	Y31	Z31	X32	Y32	Z32	X33	Y33	Z33	

71	9.005000000000	766.692041774476	1008.334229501316	537.570202026412	955.178377380580	1413.659284764000	326.696866854167	1074.150744171288	1334.341577332376	472.492763366460	1026.276744387128	1427.428276635708	649.991350239531	989.750051226252	1475.429172686883	476.246839403907	992.245819209608	932.082083364427	642.495194000709	963.874617259074	937.801239810901	366.831914724570	976.510840454258	718.638115976773	622.372017541777	863.562119872722	633.639838210615	684.125156860636	919.723569984760	562.630527622373	606.825336098445	899.428577376351	481.191493412138	612.331133926548	1038.408196996529	770.231402323131	401.748206889861	999.296116037952	641.413698155495	316.509623207725	1106.011429660419	587.867369104080	377.902243866217	1136.308797586408	521.531309747801	371.547502928976	1118.003751087362	446.877388144733	359.879101722067	1048.389996638376	318.916156609647	308.565349864074	1134.825995059438	217.433569919900	359.539883390073	860.046545784298	400.671195910684	617.595013301945	778.686905337474	304.061602142855	678.047196332653	813.388645720359	205.916762611382	613.656170125098	670.267474157348	44.691713428342	575.979058012065	840.387683932743	96.370536199736	618.952394711738	750.251927085888	36.765289827308	653.457089719343	959.006314566921	40.498912761899	651.836078235197	1049.334046507998	41.571392409563	395.199170455548	1122.241226147943	46.599193663142	314.214962702419	1195.947321672241	119.562088510100	337.214679946991	1327.993900943103	86.019141580502	308.082679879581	751.734840295875	1125.860205014433	253.841431602692	658.545474286670	883.564784439087	270.183360380969	1178.113011895532	1140.282558330241	776.941034522962	1387.413797699710	1216.186763505404	661.068571127032	
72	9.016642857143	767.795467844014	1006.382027307448	534.391737322989	954.840158818391	1412.723934803282	324.403563598741	1073.748883967092	1334.098138887083	470.525932634871	1024.343285171732	1426.578358106335	647.866812405620	988.465638345620	1474.458686763188	474.157418965354	993.274117883846	930.729664804241	640.259668886312	965.773871217505	935.851535823526	364.780039108967	976.794832197031	717.062376905490	620.217465308159	863.180973929198	632.721753853771	682.224085767055	918.625804744813	561.217296708962	604.997057406310	897.361993394164	479.543507700326	610.488951770305	1039.152834673935	765.820577737051	399.777841268020	996.807860571831	637.154131923594	316.256024218136	1103.319694232548	582.933639054661	377.542600798764	1131.983632839121	516.380779504620	371.980879064827	1113.851101004188	442.144480746256	360.164891263925	1043.614282498431	313.915979500273	310.937257285506	1130.564193956358	212.886380562267	361.702080916334	856.888873187583	399.365291686907	616.148991251389	774.334228285932	304.076049381342	677.254114622267	807.186846359540	205.272252964073	613.046364436069	662.113582779150	45.066317225155	576.156053295509	832.239574406548	96.328854921599	618.841485354084	742.119728903685	36.908237691060	653.569875226999	950.876166024077	40.280844830098	651.889121976003	1044.204220922308	39.282192854081	399.473796010760	1116.223167379649	42.996172308147	317.563916645219	1191.549729367209	114.073796802846	339.955368119775	1322.713999249223	77.706353858920	309.367859951685	750.307316664869	1126.308377177219	251.994561057169	654.709926614989	884.886429328935	269.285174037941	1181.044003355877	1142.186498522873	773.011435174432	1384.350718735832	1229.089789038391	655.403843560492	
73	9.028285714286	768.813507023444	1004.699468091404	531.187347136586	954.668840619818	1411.896686735292	321.919664893720	1073.484868590076	1333.941052907770	468.425489607259	1022.609237785973	1425.870579299561	645.600089372213	987.365729393116	1473.652149345592	471.826538627033	994.289196268768	929.451670257794	637.827608731348	967.508560877198	934.269755104615	362.594165279394	977.322400211554	715.613480819264	617.869624783276	863.178708494482	631.823694962221	680.116162265163	918.030487775087	559.857021597852	602.975612702197	895.773021755287	477.883904875534	608.417940999498	1040.085302905288	762.249385434616	397.565785342417	994.744477599548	633.778943262968	315.878604619103	1101.181964655063	579.026903887066	376.959708380401	1128.176092930280	512.034913587946	372.300292374807	1110.076841303471	438.049013761838	360.366091326809	1038.986864948852	309.875811921622	312.669834119714	1125.699914806891	208.903851972602	363.571760857983	854.173456555483	398.043477563614	614.562574058640	770.316509321140	304.211745993920	676.322252998737	801.210559845652	204.705951726277	612.391973631283	653.998977266069	45.722411963958	576.393823682619	824.224571504497	96.364729956877	618.785844782627	734.040773062671	37.180299203841	653.719555249491	942.788308933492	40.043239482590	651.948651575596	1037.543924433554	37.793094907721	402.997821958489	1108.900896150538	40.109200532347	320.344838004286	1185.980006528315	109.087480679155	342.452540912592	1316.275205313691	69.569187134490	310.717798445905	749.759106510131	1126.179706584120	249.932414482025	652.234917868418	885.470587537711	267.997367525942	1183.154991928124	1143.676051406711	769.330734667969	1380.372998391354	1240.572285293105	650.255349961513	
74	9.039928571429	769.712335359254	1003.387966821276	528.014108967168	954.661480562302	1411.247314151716	319.278387542539	1073.365764331562	1333.892542069476	466.192307011911	1021.175124088946	1425.362451422137	643.201935475106	986.503859082155	1473.071823082619	469.275867505808	995.234779111144	928.332268667878	635.209209867603	969.007512705165	933.151249503623	360.238363780957	977.991553586210	714.371346867979	615.363570870818	863.461522320135	631.016556904312	677.828609936704	917.875741176983	558.619901790203	600.800917169176	894.633652358269	476.261249262443	606.189002758106	1041.169641921789	759.715007333840	395.121872739309	993.211767878505	631.449182347679	315.278734993144	1099.622836095186	576.260749936901	376.098708239220	1124.969669284866	508.657304245914	372.410516260083	1106.794461453524	434.741090041954	360.408064931391	1034.753242052222	306.908859476102	313.543275748980	1120.483626322196	205.631934081696	365.016940334314	851.863257093099	396.771417565415	612.892777397816	766.580531567277	304.540482794982	675.271205993838	795.459712872109	204.292734513180	611.733285102215	645.940026116497	46.749190651197	576.702092700263	816.384382625360	96.490856397108	618.803224537763	726.026168008016	37.622401091725	653.909830293655	934.747412672142	39.790410168782	652.009578476061	1029.822509115570	36.986272145393	405.604802393712	1100.758512617196	37.968371258649	322.416708620747	1179.533173199971	104.863766276612	344.533406658848	1309.053141286902	62.220640618067	312.007346164835	750.107142750282	1125.513531767665	247.633057418912	651.208119504082	885.309440820061	266.293922248437	1184.425535001446	1144.701536744338	765.964044695167	1375.624979146278	1250.542955932436	645.652765518237	
